<svg xmlns="http://www.w3.org/2000/svg" width="44" height="46" fill="none" viewBox="0 0 44 46">
  <path fill="#f7d117" d="M19.252 1.796c1.05-2.395 4.447-2.395 5.496 0l4.937 11.273c.868 1.982-.584 4.203-2.748 4.203h-9.874c-2.164 0-3.616-2.221-2.748-4.203z"/><rect width="32" height="36" x="6" y="9.522" fill="#e51e25" rx="16"/>
  <path fill="#e51e25" d="M1.5 30.12c-2-1.154-2-4.041 0-5.196L6 22.326c2-1.154 4.5.289 4.5 2.598v5.196c0 2.31-2.5 3.753-4.5 2.598zM42.5 30.12c2-1.154 2-4.041 0-5.196L38 22.326c-2-1.154-4.5.289-4.5 2.598v5.196c0 2.31 2.5 3.753 4.5 2.598z"/><circle cx="27.5" cy="17.022" r="2.5" fill="#000"/><circle cx="16.5" cy="17.022" r="2.5" fill="#000"/>
</svg>
